<svg width="16" height="16" viewBox="0 0 14 14" fill="none" xmlns="http://www.w3.org/2000/svg">
<path d="M0.299359 12.167C-0.0921854 12.5678 -0.110397 13.2782 0.308464 13.6881C0.727326 14.0979 1.42846 14.0888 1.82911 13.6972L7.00114 8.52387L12.1641 13.6972C12.5738 14.0979 13.275 14.107 13.6847 13.6881C14.0945 13.2691 14.1036 12.5769 13.6938 12.167L8.52179 6.99374L13.6938 1.82956C14.1036 1.4197 14.1036 0.718396 13.6847 0.30854C13.2658 -0.101316 12.5738 -0.101316 12.1641 0.299432L7.00114 5.47272L1.82911 0.299432C1.42846 -0.092208 0.71822 -0.110424 0.308464 0.30854C-0.101291 0.727504 -0.0921854 1.42881 0.299359 1.82045L5.47138 6.99374L0.299359 12.167Z" fill="#111821"/>
</svg>